<?xml version="1.0" encoding="utf-8"?>
<!-- Generator: Adobe Illustrator 24.0.2, SVG Export Plug-In . SVG Version: 6.00 Build 0)  -->
<svg version="1.1" id="Camada_1" xmlns="http://www.w3.org/2000/svg" xmlns:xlink="http://www.w3.org/1999/xlink" x="0px" y="0px"
	 viewBox="0 0 408 62" style="enable-background:new 0 0 408 62;" xml:space="preserve">
<style type="text/css">
	.st0{fill:url(#SVGID_1_);}
	.st1{fill:url(#SVGID_2_);}
	.st2{fill:#FFFFFF;}
	.st3{fill:#E85234;}
	.st4{fill:#6E6E6E;}
	.st5{display:none;fill:#00FFFF;}
</style>
<g>
	<g>
		<g>
			
				<linearGradient id="SVGID_1_" gradientUnits="userSpaceOnUse" x1="-5486.8545" y1="8635.9209" x2="-5486.8545" y2="8683.8818" gradientTransform="matrix(4.489700e-11 -1 1 4.489700e-11 -8628.958 -5449.6611)">
				<stop  offset="5.586592e-03" style="stop-color:#FF7610"/>
				<stop  offset="0.9944" style="stop-color:#FF6C0E"/>
			</linearGradient>
			<path class="st0" d="M54.92,50.57V19.13H6.96v31.44c0,2.59,2.1,4.68,4.68,4.68h38.59C52.83,55.26,54.92,53.16,54.92,50.57z"/>
			<linearGradient id="SVGID_2_" gradientUnits="userSpaceOnUse" x1="6.9626" y1="25.2821" x2="54.9235" y2="25.2821">
				<stop  offset="5.586592e-03" style="stop-color:#E85234"/>
				<stop  offset="0.9944" style="stop-color:#FF6C0E"/>
			</linearGradient>
			<path class="st1" d="M6.96,12.09v19.18c0,6.62,5.37,11.99,11.99,11.99s11.99-5.37,11.99-11.99l0,0l0,0
				c0-6.62,5.37-11.99,11.99-11.99c6.62,0,11.99,5.37,11.99,11.99V12.09c0-2.65-2.15-4.8-4.8-4.8H11.76
				C9.11,7.3,6.96,9.44,6.96,12.09z"/>
		</g>
	</g>
	<g>
		<path class="st2" d="M29.05,30.77l17,17.01c0.38,0.38,1,0.38,1.39,0.01h0c0.39-0.38,0.39-1.01,0.01-1.4l-17-17.01L29.05,30.77z"/>
		<path class="st2" d="M35.52,14.75c-3.51,1.54-10.69,4.81-12.16,6.31l-0.01-0.01l0,0l-0.75-0.75c-0.39-0.39-1.02-0.39-1.41,0
			l-0.61,0.61l0,0l-0.61,0.61c-0.39,0.39-0.39,1.02,0,1.41l0.61,0.61l0.14,0.14c-1.51,1.47-4.77,8.65-6.31,12.16
			c-0.51,1.17-0.26,2.53,0.65,3.44c0.36,0.36,0.93,0.4,1.34,0.09l4.74-3.63c0.31-0.24,0.47-0.64,0.39-1.03l-0.22-1.12l1.21,0.24
			c0.34,0.07,0.69-0.04,0.94-0.28l9.77-9.76c0.25-0.25,0.35-0.6,0.28-0.94l-0.24-1.21l1.12,0.22c0.39,0.08,0.79-0.07,1.03-0.39
			l3.63-4.75c0.31-0.41,0.27-0.98-0.09-1.34C38.06,14.49,36.69,14.24,35.52,14.75z"/>
	</g>
</g>
<g>
	<path class="st3" d="M160.73,41.48c0-4.14-3.51-6.72-6.71-6.72l-7.42,0c-8.75,0-13.61-7.49-13.61-13.73
		c0-7.38,6.19-13.72,13.76-13.72h19.99c0.54,0,0.98,0.44,0.98,0.98v5.03c0,0.54-0.44,0.98-0.98,0.98h-20.26
		c-3.64,0-6.47,3.11-6.47,6.73c0,2.85,2.2,6.73,6.74,6.72l7.27,0.02c5.72-0.04,13.7,4.27,13.7,13.72c0,6.72-4.96,13.77-13.7,13.77
		l-20.05,0c-0.54,0-0.99-0.44-0.98-0.99l0-5.06c0-0.54,0.44-0.98,0.98-0.98h20.06C157.7,48.23,160.73,45.28,160.73,41.48"/>
	<path class="st3" d="M114.68,54.27V48.2c-4.76,4.77-11.51,7.55-18.9,6.98c-11.77-0.92-21.26-10.55-22-22.34
		C72.89,18.89,83.94,7.31,97.7,7.31c3.24,0,7.19,0.01,9,0.01c0.54,0,0.98,0.44,0.98,0.98v5.03c0,0.54-0.44,0.98-0.98,0.98H98.1
		c-8.53,0-16.53,6.9-17.3,15.39c-0.91,10.06,7.02,18.54,16.9,18.54c9.36,0,16.97-7.61,16.97-16.97c0,0,0.01,0,0.01,0V8.29
		c0-0.54,0.44-0.98,0.98-0.98h5.03c0.54,0,0.98,0.44,0.98,0.98v45.98c0,0.54-0.44,0.98-0.98,0.98h-5.03
		C115.12,55.26,114.68,54.82,114.68,54.27"/>
	<path class="st3" d="M198.71,48.26c-10.01,0-18.03-8.7-16.88-18.94c0.85-7.62,6.92-13.84,14.51-14.87
		c8.14-1.11,15.36,3.6,18.14,10.54c0.15,0.38,0.51,0.63,0.91,0.63h5.34c0.67,0,1.13-0.65,0.94-1.29
		c-3.24-10.73-13.8-18.29-25.88-16.86c-11.36,1.34-20.29,10.83-21.01,22.25c-0.88,13.95,10.17,25.53,23.94,25.53
		c10.83,0,19.98-7.18,22.96-17.04c0.19-0.64-0.27-1.29-0.94-1.29h-5.34c-0.41,0-0.76,0.25-0.91,0.63
		C211.97,43.82,205.86,48.26,198.71,48.26"/>
</g>
<g>
	<path class="st4" d="M239.55,31.28c0-14.25,10.5-23.98,23.63-23.98c8.41,0,14.11,3.96,17.79,9.18l-4.87,2.71
		c-2.64-3.89-7.44-6.74-12.93-6.74c-9.94,0-17.65,7.78-17.65,18.84c0,10.98,7.71,18.84,17.65,18.84c5.49,0,10.29-2.78,12.93-6.74
		l4.93,2.71c-3.89,5.28-9.45,9.18-17.86,9.18C250.04,55.26,239.55,45.53,239.55,31.28z"/>
	<path class="st4" d="M287.31,8.06h5.77v41.22h21.55v5.14h-27.32V8.06z"/>
	<path class="st4" d="M319.04,8.06h5.77v28.22c0,8.48,4.59,13.83,13.14,13.83s13.14-5.35,13.14-13.83V8.06h5.77v28.29
		c0,11.54-6.33,18.91-18.91,18.91s-18.91-7.44-18.91-18.84V8.06z"/>
	<path class="st4" d="M366.93,8.06h20.64c8.06,0,13,4.87,13,11.82c0,5.84-3.89,9.73-8.13,10.63c4.93,0.76,9.04,5.84,9.04,11.4
		c0,7.44-4.93,12.51-13.41,12.51h-21.13V8.06z M386.61,28.15c5.21,0,7.99-3.2,7.99-7.44c0-4.17-2.78-7.51-7.99-7.51h-13.9v14.94
		H386.61z M386.88,49.28c5.42,0,8.62-3.06,8.62-7.99c0-4.24-2.92-7.99-8.62-7.99H372.7v15.99H386.88z"/>
</g>
<rect y="18" class="st5" width="7" height="7"/>
<rect x="22" class="st5" width="7" height="7"/>
<rect x="27" y="55" class="st5" width="7" height="7"/>
<rect x="401" y="37" class="st5" width="7" height="7"/>
</svg>
